<svg width="169" height="75" viewBox="0 0 169 75" fill="none" xmlns="http://www.w3.org/2000/svg">
<path d="M2.20702 1H14.707L38.8086 58.8516L41.4883 65.5234L43.5937 58.8516L47.8594 48.7891L40.1758 31.2617H49.0898L52.2344 39.6016L55.1601 31.2617H64.0742L56.3906 48.7891L60.7383 59.0703L63.3633 65.5234L65.3867 58.9609L94.1797 1H105.207L67.6289 74H59.043L55.2422 65.5234L52.1523 57.293L49.0625 65.5234L45.207 74H36.6211L2.20702 1Z" fill="#1C2085"/>
<path d="M101.16 37.332C100.358 37.332 99.6289 37.2227 98.9726 37.0039C98.3346 36.7669 97.7877 36.457 97.332 36.0742C96.8763 35.6732 96.5208 35.2174 96.2656 34.707C96.0286 34.1784 95.9101 33.6224 95.9101 33.0391C95.9101 32.4375 96.0286 31.8815 96.2656 31.3711C96.5208 30.8424 96.8763 30.3867 97.332 30.0039C97.7877 29.6211 98.3346 29.3203 98.9726 29.1016C99.6289 28.8646 100.358 28.7461 101.16 28.7461C101.98 28.7461 102.71 28.8646 103.348 29.1016C104.004 29.3203 104.56 29.6211 105.016 30.0039C105.471 30.3867 105.818 30.8424 106.055 31.3711C106.31 31.8815 106.437 32.4375 106.437 33.0391C106.437 33.6224 106.31 34.1784 106.055 34.707C105.818 35.2174 105.471 35.6732 105.016 36.0742C104.56 36.457 104.004 36.7669 103.348 37.0039C102.71 37.2227 101.98 37.332 101.16 37.332ZM97.1133 41.7344H105.207V74H97.1133V41.7344Z" fill="#1C2085"/>
<path d="M115.625 28.6367H123.719V55.4336L138.812 41.7344H151.199L134.328 56.8281L152.266 74H140.125L128.121 62.3789L123.719 66.3164V74H115.625V28.6367Z" fill="#FAFAFF"/>
<path d="M161.863 37.332C161.061 37.332 160.332 37.2227 159.676 37.0039C159.038 36.7669 158.491 36.457 158.035 36.0742C157.579 35.6732 157.224 35.2174 156.969 34.707C156.732 34.1784 156.613 33.6224 156.613 33.0391C156.613 32.4375 156.732 31.8815 156.969 31.3711C157.224 30.8424 157.579 30.3867 158.035 30.0039C158.491 29.6211 159.038 29.3203 159.676 29.1016C160.332 28.8646 161.061 28.7461 161.863 28.7461C162.684 28.7461 163.413 28.8646 164.051 29.1016C164.707 29.3203 165.263 29.6211 165.719 30.0039C166.174 30.3867 166.521 30.8424 166.758 31.3711C167.013 31.8815 167.141 32.4375 167.141 33.0391C167.141 33.6224 167.013 34.1784 166.758 34.707C166.521 35.2174 166.174 35.6732 165.719 36.0742C165.263 36.457 164.707 36.7669 164.051 37.0039C163.413 37.2227 162.684 37.332 161.863 37.332ZM157.816 41.7344H165.91V74H157.816V41.7344Z" fill="#1C2085"/>
<path d="M2.20702 0.5H1.41853L1.75475 1.21321L36.1688 74.2132L36.304 74.5H36.6211H45.207H45.5289L45.6621 74.207L49.5176 65.7304L49.5246 65.715L49.5306 65.6992L52.1523 58.7156L54.7741 65.6992L54.7796 65.7138L54.7859 65.728L58.5867 74.2046L58.7192 74.5H59.043H67.6289H67.9339L68.0734 74.2288L105.652 1.22884L106.027 0.5H105.207H94.1797H93.8697L93.7319 0.777553L64.9389 58.7385L64.9209 58.7748L64.9089 58.8136L63.2984 64.0369L61.2014 58.8819L61.2015 58.8819L61.1988 58.8756L56.935 48.7926L64.5321 31.4625L64.8393 30.7617H64.0742H55.1601H54.8057L54.6883 31.0962L52.2174 38.1394L49.5577 31.0853L49.4357 30.7617H49.0898H40.1758H39.4106L39.7178 31.4625L47.3149 48.7924L43.1334 58.6564L43.1241 58.6784L43.1169 58.7011L41.4317 64.0411L39.2726 58.6652L39.2726 58.6652L39.2701 58.6593L15.1686 0.807714L15.0404 0.5H14.707H2.20702ZM98.7985 37.4726L98.8065 37.4756L98.8145 37.4782C99.5292 37.7165 100.313 37.832 101.16 37.832C102.024 37.832 102.81 37.7169 103.51 37.4769L103.51 37.4769L103.517 37.4742C104.22 37.2206 104.829 36.8836 105.337 36.4571L105.337 36.4572L105.346 36.4496C105.849 36.0073 106.238 35.4977 106.507 34.921C106.793 34.326 106.937 33.6969 106.937 33.0391C106.937 32.3678 106.795 31.7379 106.507 31.157C106.238 30.5617 105.846 30.0487 105.337 29.6211C104.828 29.1933 104.217 28.8652 103.514 28.6299C102.812 28.3705 102.025 28.2461 101.16 28.2461C100.31 28.2461 99.5238 28.3715 98.8066 28.6299C98.1197 28.8659 97.5182 29.1945 97.0104 29.6211C96.5014 30.0487 96.1017 30.5605 95.8153 31.1537L95.8121 31.1605C95.5424 31.7414 95.4101 32.3699 95.4101 33.0391C95.4101 33.6924 95.5433 34.3181 95.8094 34.9116L95.8137 34.9212L95.8184 34.9306C96.1042 35.5023 96.5007 36.0087 97.0017 36.4496L97.0016 36.4497L97.0104 36.4571C97.5158 36.8816 98.1144 37.2185 98.7985 37.4726ZM97.1133 41.2344H96.6133V41.7344V74V74.5H97.1133H105.207H105.707V74V41.7344V41.2344H105.207H97.1133ZM115.625 28.1367H115.125V28.6367V74V74.5H115.625H123.719H124.219V74V66.54L128.108 63.0618L139.777 74.3592L139.923 74.5H140.125H152.266H153.511L152.611 73.6388L135.064 56.8405L151.533 42.107L152.508 41.2344H151.199H138.812H138.619L138.476 41.3641L124.219 54.3046V28.6367V28.1367H123.719H115.625ZM159.502 37.4726L159.51 37.4756L159.518 37.4782C160.232 37.7165 161.016 37.832 161.863 37.832C162.727 37.832 163.513 37.7169 164.213 37.4769L164.221 37.4742C164.923 37.2206 165.533 36.8836 166.04 36.4571L166.04 36.4572L166.049 36.4496C166.552 36.0071 166.942 35.4975 167.21 34.9206C167.496 34.3257 167.641 33.6968 167.641 33.0391C167.641 32.3678 167.498 31.7379 167.21 31.1568C166.941 30.5616 166.549 30.0487 166.04 29.6211C165.531 29.1933 164.92 28.8652 164.217 28.6299C163.515 28.3705 162.728 28.2461 161.863 28.2461C161.013 28.2461 160.227 28.3715 159.51 28.6299C158.823 28.8659 158.221 29.1945 157.714 29.6211C157.204 30.0487 156.805 30.5605 156.518 31.1537L156.515 31.1605C156.246 31.7414 156.113 32.3699 156.113 33.0391C156.113 33.6924 156.246 34.3181 156.512 34.9116L156.517 34.9212L156.522 34.9306C156.807 35.5023 157.204 36.0087 157.705 36.4496L157.705 36.4497L157.714 36.4571C158.219 36.8816 158.818 37.2185 159.502 37.4726ZM157.816 41.2344H157.316V41.7344V74V74.5H157.816H165.91H166.41V74V41.7344V41.2344H165.91H157.816Z" stroke="#1C2085"/>
</svg>
